<svg xmlns="http://www.w3.org/2000/svg" version="1.1" xmlns:xlink="http://www.w3.org/1999/xlink" xmlns:svgjs="http://svgjs.dev/svgjs" width="1000" height="1112" viewBox="0 0 1000 1112"><g transform="matrix(1,0,0,1,1.015503135644508,0.4502024291497264)"><svg viewBox="0 0 222 247" data-background-color="#ffffff" preserveAspectRatio="xMidYMid meet" height="1112" width="1000" xmlns="http://www.w3.org/2000/svg" xmlns:xlink="http://www.w3.org/1999/xlink"><g id="tight-bounds" transform="matrix(1,0,0,1,-0.22544169611308007,-0.09999999999999432)"><svg viewBox="0 0 222.45088339222616 247.2" height="247.2" width="222.45088339222616"><g><svg viewBox="0 0 222.45088339222616 247.2" height="247.2" width="222.45088339222616"><g><svg viewBox="0 0 222.45088339222616 247.2" height="247.2" width="222.45088339222616"><g><svg viewBox="0 0 222.45088339222616 247.2" height="247.2" width="222.45088339222616"><g><svg viewBox="0 0 222.45088339222616 247.2" height="247.2" width="222.45088339222616"><g transform="matrix(1,0,0,1,0,0)"><svg width="222.45088339222616" viewBox="2.25 -36.5 38.20000076293945 42.45000076293945" height="247.2" data-palette-color="#08fdd8"><path d="M15.8-31.1L15.8-31.1 34.2-10.4 34.2-31.5 34.7-31.5 34.7-4.5 34.2-4.5 34.2-9.65 15.3-30.85Q15.25-30.9 15.18-30.95 15.1-31 15.05-31L15.05-31Q15-31 14.98-30.95 14.95-30.9 14.95-30.85L14.95-30.85 14.95-4.5 14.45-4.5 14.45-30.95Q14.45-31.25 14.65-31.4 14.85-31.55 15.05-31.55L15.05-31.55Q15.25-31.55 15.4-31.45 15.55-31.35 15.8-31.1ZM11 0L18.5 0Q19.45 0 19.88-0.43 20.3-0.85 20.3-1.8L20.3-1.8 20.3-18.3 28.85-7.95 28.85-1.8Q28.85-0.85 29.28-0.43 29.7 0 30.65 0L30.65 0 38.15 0Q39.1 0 39.53-0.43 39.95-0.85 39.95-1.8L39.95-1.8 39.95-34.2Q39.95-35.15 39.53-35.58 39.1-36 38.15-36L38.15-36 30.65-36Q29.7-36 29.28-35.58 28.85-35.15 28.85-34.2L28.85-34.2 28.85-23.55 19.15-34.65Q18.5-35.4 17.82-35.7 17.15-36 16.2-36L16.2-36 11-36Q10.05-36 9.63-35.58 9.2-35.15 9.2-34.2L9.2-34.2 9.2-1.8Q9.2-0.85 9.63-0.43 10.05 0 11 0L11 0ZM20.1 0.05L20.1 0.05 13.6 5.45Q13.4 5.65 12.98 5.8 12.55 5.95 12.05 5.95L12.05 5.95 4.55 5.95Q3.35 5.95 2.8 5.4 2.25 4.85 2.25 3.65L2.25 3.65 2.25-28.75Q2.25-29.4 2.43-29.85 2.6-30.3 2.95-30.6L2.95-30.6 9.4-36.05Q9.65-36.25 10.08-36.38 10.5-36.5 11-36.5L11-36.5 16.2-36.5Q17.3-36.5 18.05-36.15 18.8-35.8 19.55-35L19.55-35 23-31 29.05-36.05Q29.3-36.25 29.73-36.38 30.15-36.5 30.65-36.5L30.65-36.5 38.15-36.5Q39.35-36.5 39.9-35.95 40.45-35.4 40.45-34.2L40.45-34.2 40.45-1.8Q40.45-1.15 40.28-0.7 40.1-0.25 39.75 0.05L39.75 0.05 33.25 5.45Q33.05 5.65 32.63 5.8 32.2 5.95 31.7 5.95L31.7 5.95 24.2 5.95Q23 5.95 22.45 5.4 21.9 4.85 21.9 3.65L21.9 3.65 21.9-2.3 20.8-3.65 20.8-1.8Q20.8-1.15 20.63-0.7 20.45-0.25 20.1 0.05Z" opacity="1" transform="matrix(1,0,0,1,0,0)" fill="#08fdd8" class="undefined-text-0" data-fill-palette-color="primary" id="text-0"></path></svg></g></svg></g></svg></g></svg></g><g></g></svg></g><defs></defs></svg><rect width="222.45088339222616" height="247.2" fill="none" stroke="none" visibility="hidden"></rect></g></svg></g></svg>